<svg xmlns="http://www.w3.org/2000/svg" width="48" height="47.997" viewBox="0 0 48 47.997">
  <g id="design_icn" transform="translate(0 -0.014)">
    <g id="Group_93" data-name="Group 93" transform="translate(0 0.014)">
      <g id="Group_92" data-name="Group 92" transform="translate(0 0)">
        <path id="Path_53" data-name="Path 53" d="M47.179,34.73l-2.338-2.338h0l-3.652-3.652h0l-6.729-6.729L44.7,11.769a3.457,3.457,0,0,0,0-4.89L41.133,3.316a3.457,3.457,0,0,0-4.89,0L26,13.555,19.271,6.822,15.617,3.168h0L13.283.834a2.806,2.806,0,0,0-3.964,0l-8.5,8.5a2.8,2.8,0,0,0,0,3.964L13.542,26.018,8.606,30.954a.939.939,0,0,0-.189.272L2.376,44.394a.938.938,0,0,0,1.243,1.243L16.787,39.6a.938.938,0,0,0,.272-.189L22,34.471l4.03,4.03a.938.938,0,0,0,1.326-1.326l-4.03-4.03,9.81-9.811,2.414,2.414-.9.9a.938.938,0,1,0,1.326,1.326l.9-.9L39.2,29.4,36.521,32.08a.937.937,0,1,0,1.326,1.326l2.678-2.678,2.327,2.327-.9.9a.938.938,0,1,0,1.326,1.326l.9-.9,1.675,1.675a.928.928,0,0,1,0,1.313l-8.5,8.5a.929.929,0,0,1-1.313,0l-3.379-3.379a.938.938,0,0,0-1.326,1.326l3.379,3.379a2.807,2.807,0,0,0,3.964,0l8.5-8.5a2.8,2.8,0,0,0,0-3.964ZM37.569,4.642a1.583,1.583,0,0,1,2.238,0l3.564,3.564a1.584,1.584,0,0,1,0,2.238l-2.737,2.737-5.8-5.8ZM2.147,11.971a.928.928,0,0,1,0-1.313l8.5-8.5a.929.929,0,0,1,1.313,0l1.67,1.67-.9.9a.937.937,0,1,0,1.326,1.326l.9-.9,2.328,2.328L14.6,10.162a.937.937,0,1,0,1.326,1.326L18.607,8.81l2.327,2.327-.9.9a.938.938,0,1,0,1.326,1.326l.9-.9,2.418,2.418-9.81,9.811ZM5.133,42.88l1.284-2.8L7.932,41.6ZM9.75,40.762l-2.5-2.5,2.308-5.031,5.221,5.221ZM16.4,37.418l-5.8-5.8L33.507,8.7l3.116,3.116L28.9,19.548a.937.937,0,1,0,1.326,1.326l7.727-7.727,1.36,1.36Z" transform="translate(0 -0.014)"/>
      </g>
    </g>
    <g id="Group_95" data-name="Group 95" transform="translate(28.622 39.772)">
      <g id="Group_94" data-name="Group 94">
        <path id="Path_54" data-name="Path 54" d="M306.9,424.365a.938.938,0,1,0,.275.664A.944.944,0,0,0,306.9,424.365Z" transform="translate(-305.3 -424.091)"/>
      </g>
    </g>
    <g id="Group_97" data-name="Group 97" transform="translate(26.115 21.78)">
      <g id="Group_96" data-name="Group 96">
        <path id="Path_55" data-name="Path 55" d="M280.16,232.456a.937.937,0,1,0,.275.663A.945.945,0,0,0,280.16,232.456Z" transform="translate(-278.56 -232.181)"/>
      </g>
    </g>
  </g>
</svg>
