<svg xmlns="http://www.w3.org/2000/svg" width="42.954" height="48" viewBox="0 0 42.954 48">
  <g id="develop_icn" transform="translate(-0.5)">
    <path id="Path_42" data-name="Path 42" d="M219.9,374.021a.938.938,0,1,0,.663-.275A.941.941,0,0,0,219.9,374.021Zm0,0" transform="translate(-198.582 -338.708)"/>
    <path id="Path_43" data-name="Path 43" d="M335.567,407.758a.939.939,0,1,0,.663.275A.945.945,0,0,0,335.567,407.758Zm0,0" transform="translate(-302.805 -369.531)"/>
    <path id="Path_44" data-name="Path 44" d="M38.764,7.091H37.92V.938A.938.938,0,0,0,36.983,0H6.971a.938.938,0,0,0-.938.938V7.091H5.189A4.694,4.694,0,0,0,.5,11.78V35.414A4.694,4.694,0,0,0,5.189,40.1h12.1v2.272a4.694,4.694,0,0,0-4.6,4.687.938.938,0,0,0,.938.938h16.7a.938.938,0,0,0,.938-.938,4.694,4.694,0,0,0-4.6-4.687V40.1h2.623a.938.938,0,1,0,0-1.876H5.189a2.816,2.816,0,0,1-2.814-2.813V33.726h39.2v1.688a2.816,2.816,0,0,1-2.814,2.813H36.608a.938.938,0,1,0,0,1.876h2.157a4.694,4.694,0,0,0,4.689-4.689V11.78a4.694,4.694,0,0,0-4.689-4.689ZM29.231,46.124h-14.5a2.819,2.819,0,0,1,2.653-1.876h9.2a2.818,2.818,0,0,1,2.653,1.876ZM24.794,40.1v2.251H19.167V40.1ZM36.045,1.876v4.2H7.909v-4.2ZM7.909,31.85V19.583a.938.938,0,0,0-1.876,0V31.85H2.376V11.78A2.817,2.817,0,0,1,5.189,8.966h.844v3.3a.938.938,0,1,0,1.876,0V7.953H36.045v23.9Zm30.011,0V8.966h.844a2.817,2.817,0,0,1,2.814,2.814V31.85Zm0,0" transform="translate(0)"/>
    <path id="Path_45" data-name="Path 45" d="M229.524,34.29h9.691a.938.938,0,1,0,0-1.876h-9.691a.938.938,0,1,0,0,1.876Zm0,0" transform="translate(-206.703 -29.375)"/>
    <path id="Path_46" data-name="Path 46" d="M132.215,34.29a.939.939,0,1,0-.663-.275A.944.944,0,0,0,132.215,34.29Zm0,0" transform="translate(-118.517 -29.375)"/>
    <path id="Path_47" data-name="Path 47" d="M95.594,34.29a.938.938,0,1,0-.663-.275A.944.944,0,0,0,95.594,34.29Zm0,0" transform="translate(-85.329 -29.375)"/>
    <path id="Path_48" data-name="Path 48" d="M168.832,34.29a.938.938,0,1,0-.663-.275A.942.942,0,0,0,168.832,34.29Zm0,0" transform="translate(-151.701 -29.375)"/>
    <path id="Path_49" data-name="Path 49" d="M60.461,159.863a.938.938,0,1,0,.663.275A.945.945,0,0,0,60.461,159.863Zm0,0" transform="translate(-53.49 -144.876)"/>
    <path id="Path_50" data-name="Path 50" d="M120.031,160.595a.938.938,0,0,0-1.326,0l-4.132,4.132a.937.937,0,0,0,0,1.326l4.132,4.132a.938.938,0,0,0,1.326-1.326l-3.469-3.468,3.469-3.468A.938.938,0,0,0,120.031,160.595Zm0,0" transform="translate(-103.129 -145.29)"/>
    <path id="Path_51" data-name="Path 51" d="M282.4,160.595a.938.938,0,0,0-1.326,1.326l3.468,3.469-3.468,3.468a.938.938,0,0,0,1.326,1.326l4.132-4.132a.938.938,0,0,0,0-1.326Zm0,0" transform="translate(-254.019 -145.29)"/>
    <path id="Path_52" data-name="Path 52" d="M205.179,161.446a.937.937,0,0,0-1.238.476l-3.628,8.165a.938.938,0,1,0,1.714.762l3.628-8.165A.938.938,0,0,0,205.179,161.446Zm0,0" transform="translate(-181.008 -146.237)"/>
  </g>
</svg>
