<svg id="grow_icn_" data-name="grow_icn " xmlns="http://www.w3.org/2000/svg" width="48" height="48" viewBox="0 0 48 48">
  <path id="Path_56" data-name="Path 56" d="M452.938,380a.938.938,0,1,0,.938.938A.938.938,0,0,0,452.938,380Zm0,0" transform="translate(-409.625 -344.375)"/>
  <path id="Path_57" data-name="Path 57" d="M47.063,15h-7.5a.937.937,0,0,0-.937.938V46.125H36.469V27.188a.937.937,0,0,0-.937-.937h-7.5a.937.937,0,0,0-.937.938V46.125H24.938V19.688A.937.937,0,0,0,24,18.75H16.5a.937.937,0,0,0-.937.938V46.125H13.406V32.813a.937.937,0,0,0-.937-.937h-7.5a.937.937,0,0,0-.937.938V46.125H1.875V.938A.938.938,0,0,0,0,.938V47.063A.937.937,0,0,0,.938,48H47.063A.937.937,0,0,0,48,47.063V15.938A.937.937,0,0,0,47.063,15ZM40.5,16.875h5.625v29.25H40.5ZM28.969,28.125h5.625v18H28.969Zm-11.531-7.5h5.625v25.5H17.438ZM5.906,33.75h5.625V46.125H5.906Zm0,0"/>
  <path id="Path_58" data-name="Path 58" d="M56.75,24.375a3.75,3.75,0,0,0,3.19-5.721l6.509-7.882a3.748,3.748,0,0,0,4.23-.39l5.634,5.144a3.75,3.75,0,1,0,6.674-.647l5.992-7.839a3.754,3.754,0,1,0-1.372-1.293l-5.992,7.839a3.75,3.75,0,0,0-4.2.407L71.781,8.849a3.75,3.75,0,1,0-6.69.622l-6.509,7.882a3.75,3.75,0,1,0-1.833,7.022Zm34.031-22.5A1.875,1.875,0,1,1,88.906,3.75,1.877,1.877,0,0,1,90.781,1.875ZM79.813,15a1.875,1.875,0,1,1-1.875,1.875A1.875,1.875,0,0,1,79.813,15ZM68.281,5.625A1.875,1.875,0,1,1,66.406,7.5,1.877,1.877,0,0,1,68.281,5.625ZM56.75,18.75a1.875,1.875,0,1,1-1.875,1.875A1.875,1.875,0,0,1,56.75,18.75Zm0,0" transform="translate(-48.031 0)"/>
  <path id="Path_59" data-name="Path 59" d="M452.938,260a.937.937,0,0,0-.937.938v7.5a.938.938,0,0,0,1.875,0v-7.5A.937.937,0,0,0,452.938,260Zm0,0" transform="translate(-409.625 -235.625)"/>
</svg>
