<svg xmlns="http://www.w3.org/2000/svg" width="239.543" height="396.721" viewBox="0 0 239.543 396.721">
  <path id="Intersection_1" data-name="Intersection 1" d="M-1135.948,396.683c0-5.013,2.148-10.026,7.16-12.174h.716a14.438,14.438,0,0,1,7.877-2.148,17.547,17.547,0,0,1,8.593,2.865,171.911,171.911,0,0,0,171.149-172.58c0-22.2-3.581-42.251-11.458-61.585-2.148,0-4.3.716-6.445.716a44.622,44.622,0,0,1-44.4-44.4,46.509,46.509,0,0,1,5.729-22.2c-30.793-27.928-70.895-45.114-116.009-45.114A174.014,174.014,0,0,0-1153.5,44.8V19.182A196.867,196.867,0,0,1-1113.034,15,197.033,197.033,0,0,1-978.406,67.991c6.445-2.864,12.89-5.012,20.051-5.012a44.621,44.621,0,0,1,44.4,44.4A43.4,43.4,0,0,1-929,140.318a198.943,198.943,0,0,1,13.606,71.61c0,108.848-88.08,197.645-197.644,197.645h-.716a12.1,12.1,0,0,1-7.16,2.148C-1128.788,411.721-1135.948,404.56-1135.948,396.683ZM-964.085,82.314c-8.593,2.148-15.754,8.593-17.9,17.186a25.431,25.431,0,0,0-1.433,7.16c0,13.606,10.742,24.348,23.631,25.78h6.445c12.174-2.148,21.484-12.174,21.484-25.064A25.673,25.673,0,0,0-957.64,81.6C-960.5,81.6-962.652,81.6-964.085,82.314Z" transform="translate(1153.5 -15)" fill="#f1f4fc"/>
</svg>
